<?xml version="1.0" standalone="no"?>
<!DOCTYPE svg PUBLIC "-//W3C//DTD SVG 20010904//EN"
 "http://www.w3.org/TR/2001/REC-SVG-20010904/DTD/svg10.dtd">
<svg version="1.0" xmlns="http://www.w3.org/2000/svg"
 width="64.000000pt" height="64.000000pt" viewBox="0 0 64.000000 64.000000"
 preserveAspectRatio="xMidYMid meet">

<g transform="translate(0.000000,64.000000) scale(0.100000,-0.100000)"
fill="#000000" stroke="none">
<path d="M85 490 c-10 -17 5 -30 34 -30 27 0 28 -3 51 -102 16 -65 32 -110 45
-123 19 -19 19 -21 3 -38 -10 -9 -18 -26 -18 -37 0 -26 34 -60 60 -60 26 0 60
34 60 60 0 11 -9 29 -20 40 -20 20 -20 20 50 20 70 0 70 0 50 -20 -11 -11 -20
-29 -20 -40 0 -26 34 -60 60 -60 26 0 60 34 60 60 0 11 -8 28 -18 38 -17 16
-17 18 1 32 14 12 67 171 67 202 0 5 -75 8 -166 8 -147 0 -165 -2 -160 -16 3
-9 6 -18 6 -20 0 -2 61 -4 135 -4 74 0 135 -2 135 -5 0 -3 -7 -35 -16 -70
l-16 -65 -117 0 -117 0 -23 98 c-29 122 -41 142 -86 142 -18 0 -37 -4 -40 -10z
m191 -321 c10 -17 -13 -36 -27 -22 -12 12 -4 33 11 33 5 0 12 -5 16 -11z m180
0 c10 -17 -13 -36 -27 -22 -12 12 -4 33 11 33 5 0 12 -5 16 -11z"/>
</g>
</svg>
